<svg xmlns="http://www.w3.org/2000/svg" viewBox="0 0 330 120" width="330" height="120" fill="none">
  <g transform="scale(0.6)" fill="none" stroke-linecap="round" stroke-linejoin="round">
    <path d="M66.00 154.00 Q52 154 52.00 140.00 L52.00 124.00 Q52 110 64.73 104.17 L135.27 71.83 Q148 66 148.00 80.00 L148.00 140.00 Q148 154 134.00 154.00 Z" stroke="#1E2D3D" stroke-width="15"></path>
    <line x1="64.73" y1="104.17" x2="143.55" y2="68.04" stroke="#2D6A4F" stroke-width="15"></line>
    <circle cx="148" cy="66" r="13" fill="#2D6A4F"></circle>
  </g>
  <path d="M36.664-74.039L36.664-79.828L23.664-79.828L23.664-73.938C23.563-61.852 16.758-50.578 1.523-45.906L7.922-35.648C18.789-39.102 26.203-46.109 30.367-55.148C34.277-47.176 41.184-41.031 51.289-37.984L57.891-48.039C43.164-52.203 36.563-62.664 36.664-74.039ZM76.070-83.078L63.070-83.078L63.070-35.547L76.070-35.547L76.070-54.438L88.563-54.438L88.563-65L76.070-65ZM76.070-31.992L14.727-31.992L14.727-22.039L63.172-22.039L63.172-16.555L14.930-16.555L14.930 8.734L78.711 8.734L78.711-1.523L27.625-1.523L27.625-7.313L76.070-7.313ZM170.016-82.977L157.016-82.977L157.016-28.234L170.016-28.234ZM140.258-77.695L97.398-77.695L97.398-67.539L127.359-67.539L127.359-59.820L97.500-59.820L97.500-31.383L105.625-31.383C124.008-31.383 136.398-31.891 150.617-34.125L148.992-44.484C136.500-42.453 125.633-41.996 110.195-41.945L110.195-49.969L140.258-49.969ZM170.016-24.172L108.063-24.172L108.063 8.328L170.016 8.328ZM120.859-13.914L157.320-13.914L157.320-2.031L120.859-2.031Z" transform="translate(158 97.17)" fill="#1E2D3D"></path>
</svg>